<?xml version="1.0" standalone="no"?>
<!DOCTYPE svg PUBLIC "-//W3C//DTD SVG 20010904//EN"
 "http://www.w3.org/TR/2001/REC-SVG-20010904/DTD/svg10.dtd">
<svg version="1.0" xmlns="http://www.w3.org/2000/svg"
 width="225.000000pt" height="225.000000pt" viewBox="0 0 225.000000 225.000000"
 preserveAspectRatio="xMidYMid meet">
<metadata>
Created by potrace 1.14, written by Peter Selinger 2001-2017
</metadata>
<g transform="translate(0.000000,225.000000) scale(0.100000,-0.100000)"
fill="#000000" stroke="none">
<path d="M982 2169 c-102 -13 -211 -47 -317 -98 -536 -262 -749 -912 -470
-1438 107 -201 264 -353 470 -453 288 -141 614 -144 902 -10 527 245 758 874
513 1397 -196 419 -639 662 -1098 602z m381 -552 c71 -23 121 -61 150 -115 57
-107 42 -230 -39 -301 l-45 -40 28 -14 c35 -19 75 -62 99 -107 27 -51 26 -179
-3 -241 -30 -66 -85 -123 -143 -148 -73 -32 -167 -40 -432 -41 l-238 0 0 516
0 516 288 -4 c226 -4 297 -8 335 -21z"/>
<path d="M950 1344 l0 -116 153 4 c201 5 237 23 237 117 0 87 -59 111 -271
111 l-119 0 0 -116z"/>
<path d="M950 924 l0 -136 158 4 c174 4 209 14 237 68 18 35 19 106 2 140 -24
49 -67 60 -239 60 l-158 0 0 -136z"/>
</g>
</svg>
